<mxfile host="app.diagrams.net" modified="2023-06-21T07:07:11.294Z" agent="5.0 (Macintosh; Intel Mac OS X 10_15_7) AppleWebKit/537.36 (KHTML, like Gecko) Chrome/114.0.0.0 Safari/537.36" etag="2vzf0B8qtzF-QMvBebBv" version="21.0.6" type="github">
  <diagram name="第 1 页" id="Jh1NBhiFunuxzFQaFLzN">
    <mxGraphModel dx="1372" dy="785" grid="1" gridSize="10" guides="1" tooltips="1" connect="1" arrows="1" fold="1" page="1" pageScale="1" pageWidth="850" pageHeight="1100" math="0" shadow="0">
      <root>
        <mxCell id="0" />
        <mxCell id="1" parent="0" />
        <mxCell id="8-tahkjjap_dgUBPMCS7-21" value="" style="group" vertex="1" connectable="0" parent="1">
          <mxGeometry x="90" y="280" width="173" height="160" as="geometry" />
        </mxCell>
        <mxCell id="8-tahkjjap_dgUBPMCS7-9" value="" style="shape=curlyBracket;whiteSpace=wrap;html=1;rounded=1;labelPosition=left;verticalLabelPosition=middle;align=right;verticalAlign=middle;sketch=1;hachureGap=4;jiggle=2;curveFitting=1;fontFamily=Architects Daughter;fontSource=https%3A%2F%2Ffonts.googleapis.com%2Fcss%3Ffamily%3DArchitects%2BDaughter;fontSize=20;" vertex="1" parent="8-tahkjjap_dgUBPMCS7-21">
          <mxGeometry width="20" height="120" as="geometry" />
        </mxCell>
        <mxCell id="8-tahkjjap_dgUBPMCS7-13" value="" style="shape=curlyBracket;whiteSpace=wrap;html=1;rounded=1;flipH=1;labelPosition=right;verticalLabelPosition=middle;align=left;verticalAlign=middle;sketch=1;hachureGap=4;jiggle=2;curveFitting=1;fontFamily=Architects Daughter;fontSource=https%3A%2F%2Ffonts.googleapis.com%2Fcss%3Ffamily%3DArchitects%2BDaughter;fontSize=20;" vertex="1" parent="8-tahkjjap_dgUBPMCS7-21">
          <mxGeometry x="153" width="20" height="120" as="geometry" />
        </mxCell>
        <mxCell id="8-tahkjjap_dgUBPMCS7-4" value="AQS" style="text;html=1;strokeColor=none;fillColor=none;align=center;verticalAlign=middle;whiteSpace=wrap;rounded=0;fontSize=20;fontFamily=Architects Daughter;container=0;" vertex="1" parent="8-tahkjjap_dgUBPMCS7-21">
          <mxGeometry x="58" y="130" width="60" height="30" as="geometry" />
        </mxCell>
        <mxCell id="8-tahkjjap_dgUBPMCS7-6" value="head" style="text;html=1;strokeColor=none;fillColor=none;align=center;verticalAlign=middle;whiteSpace=wrap;rounded=0;fontSize=20;fontFamily=Architects Daughter;container=0;" vertex="1" parent="8-tahkjjap_dgUBPMCS7-21">
          <mxGeometry x="58" y="45" width="60" height="30" as="geometry" />
        </mxCell>
        <mxCell id="8-tahkjjap_dgUBPMCS7-7" value="tail" style="text;html=1;strokeColor=none;fillColor=none;align=center;verticalAlign=middle;whiteSpace=wrap;rounded=0;fontSize=20;fontFamily=Architects Daughter;container=0;" vertex="1" parent="8-tahkjjap_dgUBPMCS7-21">
          <mxGeometry x="58" y="80" width="60" height="30" as="geometry" />
        </mxCell>
        <mxCell id="8-tahkjjap_dgUBPMCS7-19" value="exclusive&lt;br&gt;OwnerThread" style="text;html=1;strokeColor=none;fillColor=none;align=center;verticalAlign=middle;whiteSpace=wrap;rounded=0;fontSize=20;fontFamily=Architects Daughter;container=0;" vertex="1" parent="8-tahkjjap_dgUBPMCS7-21">
          <mxGeometry x="58" width="60" height="30" as="geometry" />
        </mxCell>
        <mxCell id="8-tahkjjap_dgUBPMCS7-23" value="" style="group" vertex="1" connectable="0" parent="1">
          <mxGeometry x="90" y="500" width="173" height="160" as="geometry" />
        </mxCell>
        <mxCell id="8-tahkjjap_dgUBPMCS7-24" value="" style="shape=curlyBracket;whiteSpace=wrap;html=1;rounded=1;labelPosition=left;verticalLabelPosition=middle;align=right;verticalAlign=middle;sketch=1;hachureGap=4;jiggle=2;curveFitting=1;fontFamily=Architects Daughter;fontSource=https%3A%2F%2Ffonts.googleapis.com%2Fcss%3Ffamily%3DArchitects%2BDaughter;fontSize=20;" vertex="1" parent="8-tahkjjap_dgUBPMCS7-23">
          <mxGeometry width="20" height="120" as="geometry" />
        </mxCell>
        <mxCell id="8-tahkjjap_dgUBPMCS7-25" value="" style="shape=curlyBracket;whiteSpace=wrap;html=1;rounded=1;flipH=1;labelPosition=right;verticalLabelPosition=middle;align=left;verticalAlign=middle;sketch=1;hachureGap=4;jiggle=2;curveFitting=1;fontFamily=Architects Daughter;fontSource=https%3A%2F%2Ffonts.googleapis.com%2Fcss%3Ffamily%3DArchitects%2BDaughter;fontSize=20;" vertex="1" parent="8-tahkjjap_dgUBPMCS7-23">
          <mxGeometry x="153" width="20" height="120" as="geometry" />
        </mxCell>
        <mxCell id="8-tahkjjap_dgUBPMCS7-26" value="AQS" style="text;html=1;strokeColor=none;fillColor=none;align=center;verticalAlign=middle;whiteSpace=wrap;rounded=0;fontSize=20;fontFamily=Architects Daughter;container=0;" vertex="1" parent="8-tahkjjap_dgUBPMCS7-23">
          <mxGeometry x="58" y="130" width="60" height="30" as="geometry" />
        </mxCell>
        <mxCell id="8-tahkjjap_dgUBPMCS7-27" value="head" style="text;html=1;strokeColor=none;fillColor=none;align=center;verticalAlign=middle;whiteSpace=wrap;rounded=0;fontSize=20;fontFamily=Architects Daughter;container=0;" vertex="1" parent="8-tahkjjap_dgUBPMCS7-23">
          <mxGeometry x="58" y="45" width="60" height="30" as="geometry" />
        </mxCell>
        <mxCell id="8-tahkjjap_dgUBPMCS7-28" value="tail" style="text;html=1;strokeColor=none;fillColor=none;align=center;verticalAlign=middle;whiteSpace=wrap;rounded=0;fontSize=20;fontFamily=Architects Daughter;container=0;" vertex="1" parent="8-tahkjjap_dgUBPMCS7-23">
          <mxGeometry x="58" y="80" width="60" height="30" as="geometry" />
        </mxCell>
        <mxCell id="8-tahkjjap_dgUBPMCS7-29" value="exclusive&lt;br&gt;OwnerThread" style="text;html=1;strokeColor=none;fillColor=none;align=center;verticalAlign=middle;whiteSpace=wrap;rounded=0;fontSize=20;fontFamily=Architects Daughter;container=0;" vertex="1" parent="8-tahkjjap_dgUBPMCS7-23">
          <mxGeometry x="58" width="60" height="30" as="geometry" />
        </mxCell>
        <mxCell id="8-tahkjjap_dgUBPMCS7-60" value="" style="group" vertex="1" connectable="0" parent="1">
          <mxGeometry x="470" y="700" width="60" height="120" as="geometry" />
        </mxCell>
        <mxCell id="8-tahkjjap_dgUBPMCS7-61" value="" style="rounded=1;whiteSpace=wrap;html=1;sketch=1;hachureGap=4;jiggle=2;curveFitting=1;fontFamily=Architects Daughter;fontSource=https%3A%2F%2Ffonts.googleapis.com%2Fcss%3Ffamily%3DArchitects%2BDaughter;fontSize=20;direction=south;container=0;" vertex="1" parent="8-tahkjjap_dgUBPMCS7-60">
          <mxGeometry width="60" height="120" as="geometry" />
        </mxCell>
        <mxCell id="8-tahkjjap_dgUBPMCS7-62" value="prev" style="text;html=1;strokeColor=none;fillColor=none;align=center;verticalAlign=middle;whiteSpace=wrap;rounded=0;fontSize=20;fontFamily=Architects Daughter;container=0;" vertex="1" parent="8-tahkjjap_dgUBPMCS7-60">
          <mxGeometry y="50" width="60" height="30" as="geometry" />
        </mxCell>
        <mxCell id="8-tahkjjap_dgUBPMCS7-63" value="next" style="text;html=1;strokeColor=none;fillColor=none;align=center;verticalAlign=middle;whiteSpace=wrap;rounded=0;fontSize=20;fontFamily=Architects Daughter;container=0;" vertex="1" parent="8-tahkjjap_dgUBPMCS7-60">
          <mxGeometry y="80" width="60" height="30" as="geometry" />
        </mxCell>
        <mxCell id="8-tahkjjap_dgUBPMCS7-73" value="A" style="text;html=1;strokeColor=none;fillColor=none;align=center;verticalAlign=middle;whiteSpace=wrap;rounded=0;fontSize=20;fontFamily=Architects Daughter;" vertex="1" parent="8-tahkjjap_dgUBPMCS7-60">
          <mxGeometry y="20" width="60" height="30" as="geometry" />
        </mxCell>
        <mxCell id="8-tahkjjap_dgUBPMCS7-64" value="" style="group" vertex="1" connectable="0" parent="1">
          <mxGeometry x="340" y="500" width="60" height="120" as="geometry" />
        </mxCell>
        <mxCell id="8-tahkjjap_dgUBPMCS7-65" value="" style="rounded=1;whiteSpace=wrap;html=1;sketch=1;hachureGap=4;jiggle=2;curveFitting=1;fontFamily=Architects Daughter;fontSource=https%3A%2F%2Ffonts.googleapis.com%2Fcss%3Ffamily%3DArchitects%2BDaughter;fontSize=20;direction=south;container=0;" vertex="1" parent="8-tahkjjap_dgUBPMCS7-64">
          <mxGeometry width="60" height="120" as="geometry" />
        </mxCell>
        <mxCell id="8-tahkjjap_dgUBPMCS7-66" value="prev" style="text;html=1;strokeColor=none;fillColor=none;align=center;verticalAlign=middle;whiteSpace=wrap;rounded=0;fontSize=20;fontFamily=Architects Daughter;container=0;" vertex="1" parent="8-tahkjjap_dgUBPMCS7-64">
          <mxGeometry y="50" width="60" height="30" as="geometry" />
        </mxCell>
        <mxCell id="8-tahkjjap_dgUBPMCS7-67" value="next" style="text;html=1;strokeColor=none;fillColor=none;align=center;verticalAlign=middle;whiteSpace=wrap;rounded=0;fontSize=20;fontFamily=Architects Daughter;container=0;" vertex="1" parent="8-tahkjjap_dgUBPMCS7-64">
          <mxGeometry y="80" width="60" height="30" as="geometry" />
        </mxCell>
        <mxCell id="8-tahkjjap_dgUBPMCS7-69" style="edgeStyle=orthogonalEdgeStyle;rounded=0;sketch=1;hachureGap=4;jiggle=2;curveFitting=1;orthogonalLoop=1;jettySize=auto;html=1;exitX=1;exitY=0.75;exitDx=0;exitDy=0;fontFamily=Architects Daughter;fontSource=https%3A%2F%2Ffonts.googleapis.com%2Fcss%3Ffamily%3DArchitects%2BDaughter;fontSize=16;" edge="1" parent="1" source="8-tahkjjap_dgUBPMCS7-28" target="8-tahkjjap_dgUBPMCS7-67">
          <mxGeometry relative="1" as="geometry" />
        </mxCell>
        <mxCell id="8-tahkjjap_dgUBPMCS7-71" style="edgeStyle=orthogonalEdgeStyle;rounded=0;sketch=1;hachureGap=4;jiggle=2;curveFitting=1;orthogonalLoop=1;jettySize=auto;html=1;exitX=1;exitY=0;exitDx=0;exitDy=0;entryX=0.25;entryY=1;entryDx=0;entryDy=0;fontFamily=Architects Daughter;fontSource=https%3A%2F%2Ffonts.googleapis.com%2Fcss%3Ffamily%3DArchitects%2BDaughter;fontSize=16;" edge="1" parent="1" source="8-tahkjjap_dgUBPMCS7-27" target="8-tahkjjap_dgUBPMCS7-65">
          <mxGeometry relative="1" as="geometry">
            <Array as="points">
              <mxPoint x="274" y="545" />
              <mxPoint x="274" y="530" />
            </Array>
          </mxGeometry>
        </mxCell>
        <mxCell id="8-tahkjjap_dgUBPMCS7-74" value="" style="group" vertex="1" connectable="0" parent="1">
          <mxGeometry x="100" y="700" width="173" height="160" as="geometry" />
        </mxCell>
        <mxCell id="8-tahkjjap_dgUBPMCS7-75" value="" style="shape=curlyBracket;whiteSpace=wrap;html=1;rounded=1;labelPosition=left;verticalLabelPosition=middle;align=right;verticalAlign=middle;sketch=1;hachureGap=4;jiggle=2;curveFitting=1;fontFamily=Architects Daughter;fontSource=https%3A%2F%2Ffonts.googleapis.com%2Fcss%3Ffamily%3DArchitects%2BDaughter;fontSize=20;" vertex="1" parent="8-tahkjjap_dgUBPMCS7-74">
          <mxGeometry width="20" height="120" as="geometry" />
        </mxCell>
        <mxCell id="8-tahkjjap_dgUBPMCS7-76" value="" style="shape=curlyBracket;whiteSpace=wrap;html=1;rounded=1;flipH=1;labelPosition=right;verticalLabelPosition=middle;align=left;verticalAlign=middle;sketch=1;hachureGap=4;jiggle=2;curveFitting=1;fontFamily=Architects Daughter;fontSource=https%3A%2F%2Ffonts.googleapis.com%2Fcss%3Ffamily%3DArchitects%2BDaughter;fontSize=20;" vertex="1" parent="8-tahkjjap_dgUBPMCS7-74">
          <mxGeometry x="153" width="20" height="120" as="geometry" />
        </mxCell>
        <mxCell id="8-tahkjjap_dgUBPMCS7-77" value="AQS" style="text;html=1;strokeColor=none;fillColor=none;align=center;verticalAlign=middle;whiteSpace=wrap;rounded=0;fontSize=20;fontFamily=Architects Daughter;container=0;" vertex="1" parent="8-tahkjjap_dgUBPMCS7-74">
          <mxGeometry x="58" y="130" width="60" height="30" as="geometry" />
        </mxCell>
        <mxCell id="8-tahkjjap_dgUBPMCS7-78" value="head" style="text;html=1;strokeColor=none;fillColor=none;align=center;verticalAlign=middle;whiteSpace=wrap;rounded=0;fontSize=20;fontFamily=Architects Daughter;container=0;" vertex="1" parent="8-tahkjjap_dgUBPMCS7-74">
          <mxGeometry x="58" y="45" width="60" height="30" as="geometry" />
        </mxCell>
        <mxCell id="8-tahkjjap_dgUBPMCS7-79" value="tail" style="text;html=1;strokeColor=none;fillColor=none;align=center;verticalAlign=middle;whiteSpace=wrap;rounded=0;fontSize=20;fontFamily=Architects Daughter;container=0;" vertex="1" parent="8-tahkjjap_dgUBPMCS7-74">
          <mxGeometry x="58" y="80" width="60" height="30" as="geometry" />
        </mxCell>
        <mxCell id="8-tahkjjap_dgUBPMCS7-80" value="exclusive&lt;br&gt;OwnerThread" style="text;html=1;strokeColor=none;fillColor=none;align=center;verticalAlign=middle;whiteSpace=wrap;rounded=0;fontSize=20;fontFamily=Architects Daughter;container=0;" vertex="1" parent="8-tahkjjap_dgUBPMCS7-74">
          <mxGeometry x="58" width="60" height="30" as="geometry" />
        </mxCell>
        <mxCell id="8-tahkjjap_dgUBPMCS7-81" value="" style="group" vertex="1" connectable="0" parent="1">
          <mxGeometry x="350" y="700" width="60" height="120" as="geometry" />
        </mxCell>
        <mxCell id="8-tahkjjap_dgUBPMCS7-82" value="" style="rounded=1;whiteSpace=wrap;html=1;sketch=1;hachureGap=4;jiggle=2;curveFitting=1;fontFamily=Architects Daughter;fontSource=https%3A%2F%2Ffonts.googleapis.com%2Fcss%3Ffamily%3DArchitects%2BDaughter;fontSize=20;direction=south;container=0;" vertex="1" parent="8-tahkjjap_dgUBPMCS7-81">
          <mxGeometry width="60" height="120" as="geometry" />
        </mxCell>
        <mxCell id="8-tahkjjap_dgUBPMCS7-83" value="prev" style="text;html=1;strokeColor=none;fillColor=none;align=center;verticalAlign=middle;whiteSpace=wrap;rounded=0;fontSize=20;fontFamily=Architects Daughter;container=0;" vertex="1" parent="8-tahkjjap_dgUBPMCS7-81">
          <mxGeometry y="50" width="60" height="30" as="geometry" />
        </mxCell>
        <mxCell id="8-tahkjjap_dgUBPMCS7-84" value="next" style="text;html=1;strokeColor=none;fillColor=none;align=center;verticalAlign=middle;whiteSpace=wrap;rounded=0;fontSize=20;fontFamily=Architects Daughter;container=0;" vertex="1" parent="8-tahkjjap_dgUBPMCS7-81">
          <mxGeometry y="80" width="60" height="30" as="geometry" />
        </mxCell>
        <mxCell id="8-tahkjjap_dgUBPMCS7-86" style="edgeStyle=orthogonalEdgeStyle;rounded=0;sketch=1;hachureGap=4;jiggle=2;curveFitting=1;orthogonalLoop=1;jettySize=auto;html=1;exitX=1;exitY=0;exitDx=0;exitDy=0;entryX=0.25;entryY=1;entryDx=0;entryDy=0;fontFamily=Architects Daughter;fontSource=https%3A%2F%2Ffonts.googleapis.com%2Fcss%3Ffamily%3DArchitects%2BDaughter;fontSize=16;" edge="1" parent="1" source="8-tahkjjap_dgUBPMCS7-78" target="8-tahkjjap_dgUBPMCS7-82">
          <mxGeometry relative="1" as="geometry">
            <Array as="points">
              <mxPoint x="284" y="745" />
              <mxPoint x="284" y="730" />
            </Array>
          </mxGeometry>
        </mxCell>
        <mxCell id="8-tahkjjap_dgUBPMCS7-87" style="edgeStyle=orthogonalEdgeStyle;rounded=0;sketch=1;hachureGap=4;jiggle=2;curveFitting=1;orthogonalLoop=1;jettySize=auto;html=1;exitX=1;exitY=0.75;exitDx=0;exitDy=0;entryX=1;entryY=0.75;entryDx=0;entryDy=0;fontFamily=Architects Daughter;fontSource=https%3A%2F%2Ffonts.googleapis.com%2Fcss%3Ffamily%3DArchitects%2BDaughter;fontSize=16;" edge="1" parent="1" source="8-tahkjjap_dgUBPMCS7-79" target="8-tahkjjap_dgUBPMCS7-61">
          <mxGeometry relative="1" as="geometry" />
        </mxCell>
        <mxCell id="8-tahkjjap_dgUBPMCS7-88" style="edgeStyle=orthogonalEdgeStyle;rounded=0;sketch=1;hachureGap=4;jiggle=2;curveFitting=1;orthogonalLoop=1;jettySize=auto;html=1;exitX=0;exitY=0.5;exitDx=0;exitDy=0;entryX=1;entryY=0.5;entryDx=0;entryDy=0;fontFamily=Architects Daughter;fontSource=https%3A%2F%2Ffonts.googleapis.com%2Fcss%3Ffamily%3DArchitects%2BDaughter;fontSize=16;" edge="1" parent="1" source="8-tahkjjap_dgUBPMCS7-62" target="8-tahkjjap_dgUBPMCS7-83">
          <mxGeometry relative="1" as="geometry" />
        </mxCell>
        <mxCell id="8-tahkjjap_dgUBPMCS7-89" style="edgeStyle=orthogonalEdgeStyle;rounded=0;sketch=1;hachureGap=4;jiggle=2;curveFitting=1;orthogonalLoop=1;jettySize=auto;html=1;exitX=1;exitY=0.5;exitDx=0;exitDy=0;fontFamily=Architects Daughter;fontSource=https%3A%2F%2Ffonts.googleapis.com%2Fcss%3Ffamily%3DArchitects%2BDaughter;fontSize=16;" edge="1" parent="1" source="8-tahkjjap_dgUBPMCS7-84" target="8-tahkjjap_dgUBPMCS7-63">
          <mxGeometry relative="1" as="geometry" />
        </mxCell>
      </root>
    </mxGraphModel>
  </diagram>
</mxfile>
